<svg width="25" height="24" viewBox="0 0 25 24" fill="none" xmlns="http://www.w3.org/2000/svg">
<path d="M12.5 2C18.0228 2 22.5 6.47715 22.5 12C22.5 17.5228 18.0228 22 12.5 22C10.8817 22 9.31782 21.6146 7.91286 20.888L4.08704 21.9553C3.42212 22.141 2.73258 21.7525 2.54691 21.0876C2.48546 20.8676 2.48549 20.6349 2.54695 20.4151L3.61461 16.5922C2.88637 15.186 2.5 13.6203 2.5 12C2.5 6.47715 6.97715 2 12.5 2ZM12.5 3.5C7.80558 3.5 4 7.30558 4 12C4 13.4696 4.37277 14.8834 5.07303 16.1375L5.22368 16.4072L4.11096 20.3914L8.09755 19.2792L8.36709 19.4295C9.62006 20.1281 11.0322 20.5 12.5 20.5C17.1944 20.5 21 16.6944 21 12C21 7.30558 17.1944 3.5 12.5 3.5ZM9.25 13H13.7483C14.1625 13 14.4983 13.3358 14.4983 13.75C14.4983 14.1297 14.2161 14.4435 13.85 14.4932L13.7483 14.5H9.25C8.83579 14.5 8.5 14.1642 8.5 13.75C8.5 13.3703 8.78215 13.0565 9.14823 13.0068L9.25 13H13.7483H9.25ZM9.25 9.5H15.7545C16.1687 9.5 16.5045 9.83579 16.5045 10.25C16.5045 10.6297 16.2223 10.9435 15.8563 10.9932L15.7545 11H9.25C8.83579 11 8.5 10.6642 8.5 10.25C8.5 9.8703 8.78215 9.55651 9.14823 9.50685L9.25 9.5H15.7545H9.25Z" fill="#F05F40"/>
</svg>
