<svg width="25" height="24" viewBox="0 0 25 24" fill="none" xmlns="http://www.w3.org/2000/svg">
<path d="M21.3388 7.40164C21.7288 7.01164 21.7288 6.38164 21.3388 5.99164L18.5088 3.16164C18.1188 2.77164 17.4888 2.77164 17.0988 3.16164L12.6088 7.65164L8.71877 3.76164C7.93878 2.98164 6.66877 2.98164 5.88877 3.76164L3.98877 5.66164C3.20877 6.44164 3.20877 7.71164 3.98877 8.49164L7.87877 12.3816L3.36877 16.8916V21.1316H7.60877L12.1288 16.6116L16.0188 20.5016C16.9688 21.4516 18.2488 21.1016 18.8488 20.5016L20.7488 18.6016C21.5288 17.8216 21.5288 16.5516 20.7488 15.7716L16.8588 11.8816L21.3388 7.40164ZM5.40877 7.07164L7.29877 5.17164L8.56877 6.44164L7.38877 7.63164L8.79877 9.04164L9.98877 7.85164L11.1888 9.05164L9.28877 10.9516L5.40877 7.07164ZM16.6388 14.5116L15.4488 15.7016L16.8588 17.1116L18.0488 15.9216L19.3188 17.1916L17.4188 19.0916L13.5288 15.2016L15.4288 13.3016L16.6388 14.5116ZM6.77877 19.1316H5.36877V17.7216L14.9788 8.11164L16.3888 9.52164L6.77877 19.1316ZM16.3888 6.69164L17.7988 5.28164L19.2088 6.69164L17.7988 8.10164L16.3888 6.69164Z" fill="#EB5F42"/>
</svg>
